HIERARCHY
ROOT Hips
{
   OFFSET 0.00000 0.00000 0.00000
   CHANNELS 6 Xposition Yposition Zposition Zrotation Xrotation Yrotation
   JOINT RightUpLeg
   {
      OFFSET -8.945800 -8.667070 0.101652
      CHANNELS 3 Zrotation Xrotation Yrotation
      JOINT RightLeg
      {
         OFFSET 0.000000 -44.422697 1.372700
         CHANNELS 3 Zrotation Xrotation Yrotation
         JOINT RightFoot
         {
            OFFSET 0.253549 -42.092399 -1.460590
            CHANNELS 3 Zrotation Xrotation Yrotation
            JOINT RightToes
            {
               OFFSET 0.040000 -4.415090 8.499099
               CHANNELS 3 Zrotation Xrotation Yrotation
               End Site
               {
                  OFFSET -0.080000 -0.137448 9.779790
               }
            }
         }
      }
   }
   JOINT Spine
   {
      OFFSET 0.000000 11.890501 0.000000
      CHANNELS 3 Zrotation Xrotation Yrotation
      JOINT Spine1
      {
         OFFSET 0.000000 25.657401 0.127663
         CHANNELS 3 Zrotation Xrotation Yrotation
         JOINT HEad
         {
            OFFSET 0.000000 8.734161 0.011341
            CHANNELS 3 Zrotation Xrotation Yrotation
            End Site
            {
               OFFSET -0.290000 12.774200 2.513950
            }
         }
         JOINT LeftShoulder1
         {
            OFFSET 8.990000 -0.362252 -0.220000
            CHANNELS 3 Zrotation Xrotation Yrotation
            JOINT LeftArm
            {
               OFFSET 10.282700 -0.003380 0.322123
               CHANNELS 3 Zrotation Xrotation Yrotation
               JOINT LeftForeArm
               {
                  OFFSET 32.766900 0.099144 -1.424340
                  CHANNELS 3 Zrotation Xrotation Yrotation
                  JOINT LeftHand
                  {
                     OFFSET 27.564301 0.085362 1.022160
                     CHANNELS 3 Zrotation Xrotation Yrotation
                     End Site
                     {
                        OFFSET 16.744301 -0.600000 1.502910
                     }
                  }
               }
            }
         }
         JOINT RightShoulder
         {
            OFFSET -8.990000 -0.362252 -0.220000
            CHANNELS 3 Zrotation Xrotation Yrotation
            JOINT RightArm
            {
               OFFSET -10.282700 -0.003380 0.322123
               CHANNELS 3 Zrotation Xrotation Yrotation
               JOINT RightForeArm
               {
                  OFFSET -32.897098 0.099144 -1.424340
                  CHANNELS 3 Zrotation Xrotation Yrotation
                  JOINT RightHand
                  {
                     OFFSET -27.492101 0.085362 1.022160
                     CHANNELS 3 Zrotation Xrotation Yrotation
                     End Site
                     {
                        OFFSET -16.631201 -0.600000 1.502910
                     }
                  }
               }
            }
         }
      }
   }
   JOINT LeftUpLeg
   {
      OFFSET 8.945800 -8.667070 0.101652
      CHANNELS 3 Zrotation Xrotation Yrotation
      JOINT LeftLeg
      {
         OFFSET 0.000000 -44.422697 1.372700
         CHANNELS 3 Zrotation Xrotation Yrotation
         JOINT LeftFoot
         {
            OFFSET -0.253549 -42.092399 -1.460590
            CHANNELS 3 Zrotation Xrotation Yrotation
            JOINT LeftToes
            {
               OFFSET -0.040000 -4.415090 8.499099
               CHANNELS 3 Zrotation Xrotation Yrotation
               End Site
               {
                  OFFSET 0.080000 -0.047448 9.779790
               }
            }
         }
      }
   }
}
MOTION
Frames: 8
Frame Time: 0.016667
11.9197 100.656 -42.7966 45.1524 45.3592 165.753 -26.4732 -30.7274 1.61585 64.4246 10.7938 -43.4624 -8.14398 27.0202 -22.0665 0.0462048 0.000533403 0.662642 22.7991 54.9955 -15.41 -0.0180729 -0.00458103 -0.00339165 25.4215 20.3236 -21.8009 5.96354e-016 -3.18055e-015 1.59028e-015 -91.4624 -25.6784 -46.6603 -63.3129 12.434 -39.0472 16.27 31.0603 -16.9703 43.1057 1.16268 -6.8915 101.512 -50.5252 77.8637 20.3052 27.8748 49.283 16.5238 30.5918 3.40123 51.7086 9.23305 -22.7536 -46.286 28.3015 92.4752 9.91204 -6.45165 -3.71805 -1.80355e-010 1.55988e-007 -4.8394e-009 
11.4059 100.375 -42.5772 43.5157 45.3477 167.397 -24.7082 -30.7803 -2.36477 65.5591 20.2156 -46.4803 -8.00453 27.1921 -18.8028 0.0462048 0.000533403 0.662642 22.5418 54.1819 -15.6231 -0.0149751 0.00291904 -0.00446704 27.304 22.5233 -22.6743 1.59028e-015 1.59028e-015 -3.18055e-015 -91.8926 -24.587 -47.6167 -62.8144 13.2825 -39.4485 16.0687 31.0564 -16.9271 42.2425 1.45692 -7.13573 102.491 -50.4962 79.1493 21.6894 29.2733 49.8171 16.5325 30.5675 3.09194 50.6714 7.97449 -23.8102 -48.5204 28.2193 95.2524 8.41682 -7.17381 -4.44373 -1.80353e-010 1.55988e-007 -4.8394e-009 
10.882 100.181 -42.3927 41.9223 45.201 169.153 -21.849 -31.3772 -6.8595 64.961 30.3348 -50.2586 -8.4129 26.903 -14.9102 0.0462048 0.000533403 0.662642 21.9701 52.7324 -15.5455 -0.0113758 0.0104791 -0.00612287 29.1421 24.6719 -23.9009 -2.08724e-015 1.59028e-015 -1.59028e-015 -91.9824 -23.4237 -48.2355 -62.3727 14.104 -39.7346 15.8339 31.0538 -16.7388 41.5996 2.06597 -7.81731 103.459 -50.4111 80.616 23.1904 30.8154 50.226 16.4644 30.4733 2.81449 49.638 6.81188 -24.7844 -50.3306 27.9707 97.5157 6.90739 -7.83983 -5.13782 -1.80353e-010 1.55988e-007 -4.8394e-009 
10.2882 99.9151 -42.1315 39.2028 43.0738 171.962 -18.0943 -32.6058 -12.7345 58.7538 40.7544 -48.9046 -7.13877 26.5958 -12.1944 0.0462048 0.000533403 0.662642 19.9706 48.9173 -14.5174 -0.00800229 0.0178593 -0.00808042 30.8648 26.6913 -25.3847 2.08724e-015 -7.95139e-016 1.59028e-015 -91.8665 -22.396 -48.5743 -62.1204 15.0005 -39.7927 15.7033 31.0722 -16.5118 41.1421 2.96913 -8.85567 104.426 -50.2078 82.2284 24.7863 32.4785 50.5029 16.2389 30.2613 2.4752 47.7832 4.21708 -24.2699 -51.6514 27.6115 99.2637 5.52078 -8.40862 -5.728 -1.80353e-010 1.55988e-007 -4.83941e-009 
9.71235 99.5026 -41.9758 36.8784 41.0348 174.303 -13.573 -33.5672 -19.0861 49.6051 50.8772 -44.4435 -6.97308 26.5983 -9.63736 0.0462048 0.000533403 0.662642 18.2706 44.9903 -13.6612 -0.0049516 0.0248795 -0.0100961 32.3635 28.5389 -27.0099 -3.8266e-015 0 -1.59028e-015 -91.6824 -21.7088 -48.6944 -62.1817 16.0703 -39.5161 15.7068 31.0994 -16.2972 40.7894 4.14322 -10.1584 105.414 -49.8345 83.9324 26.4533 34.2402 50.6477 15.843 29.967 2.21018 46.0266 1.8849 -23.8077 -52.7197 27.257 100.603 4.11364 -8.91749 -6.26992 -1.80351e-010 1.55988e-007 -4.8394e-009 
9.12335 99.0517 -41.8159 34.7895 38.9378 176.314 -8.88868 -34.5411 -25.6851 35.7096 59.4423 -35.2656 -7.51919 26.2903 -7.04841 0.0462048 0.000533403 0.662642 17.1559 41.26 -13.3321 0.0117671 0.0378297 -0.0119265 33.4337 30.1202 -28.4091 -7.95139e-016 7.95139e-016 -0 -91.8279 -21.3306 -49.076 -62.4622 17.2288 -39.1374 15.7683 31.1133 -16.0905 40.2115 5.25339 -11.3461 106.363 -49.3071 85.5768 28.1923 36.0398 50.7715 15.3975 29.6428 1.9346 44.1937 -0.386992 -23.3685 -53.45 26.8633 101.71 2.76779 -9.28377 -6.71293 -1.80353e-010 1.55988e-007 -4.8394e-009 
8.51918 98.7037 -41.6457 32.9644 36.7856 177.98 -4.3898 -35.781 -32.1574 15.5751 65.472 -20.1664 -8.37951 25.6687 -4.47019 0.0462048 0.000533403 0.662642 16.5357 37.8551 -13.3909 0.0133188 0.0367598 -0.0133278 34.076 31.3783 -29.4747 8.59744e-015 3.97569e-016 -7.95139e-016 -92.219 -21.3607 -49.8705 -62.803 19.6159 -37.7821 17.2354 30.0932 -16.8135 39.4475 6.23444 -12.258 107.321 -48.6533 87.1997 29.9753 37.8679 50.8302 14.8745 29.2391 1.68024 42.3506 -2.59578 -22.97 -53.872 26.4251 102.567 1.48099 -9.50888 -7.04589 -1.80353e-010 1.55988e-007 -4.83939e-009 
7.88396 98.5831 -41.4536 31.5024 34.0653 178.936 0.121869 -37.845 -37.9417 -10.2166 67.9219 0.0959218 -9.07613 24.603 -2.00013 0.0462048 0.000533403 0.662642 16.0946 34.3383 -13.193 0.0125591 0.0375299 -0.0137671 34.2742 32.3576 -30.1613 3.85145e-016 -3.97569e-016 7.95139e-016 -92.76 -21.9028 -50.932 -63.4392 23.0704 -35.5039 19.8311 28.1254 -18.3297 38.5118 7.09334 -12.863 108.274 -47.866 88.7686 31.785 39.7294 50.8251 14.2631 28.7569 1.47805 40.6355 -4.90969 -22.0511 -53.9901 26.0126 102.551 0.280204 -9.62251 -7.23227 -1.80351e-010 1.55988e-007 -4.8394e-009 
